<?xml version="1.0" encoding="utf-8"?>
<!-- Generator: Adobe Illustrator 15.1.1, SVG Export Plug-In . SVG Version: 6.00 Build 0)  -->
<!DOCTYPE svg PUBLIC "-//W3C//DTD SVG 1.1//EN" "http://www.w3.org/Graphics/SVG/1.1/DTD/svg11.dtd" [
	<!ENTITY ns_flows "http://ns.adobe.com/Flows/1.0/">
	<!ENTITY ns_extend "http://ns.adobe.com/Extensibility/1.0/">
	<!ENTITY ns_ai "http://ns.adobe.com/AdobeIllustrator/10.0/">
	<!ENTITY ns_graphs "http://ns.adobe.com/Graphs/1.0/">
	<!ENTITY ns_vars "http://ns.adobe.com/Variables/1.0/">
	<!ENTITY ns_imrep "http://ns.adobe.com/ImageReplacement/1.0/">
	<!ENTITY ns_sfw "http://ns.adobe.com/SaveForWeb/1.0/">
	<!ENTITY ns_custom "http://ns.adobe.com/GenericCustomNamespace/1.0/">
	<!ENTITY ns_adobe_xpath "http://ns.adobe.com/XPath/1.0/">
]>
<svg version="1.1"
	 xmlns:x="&ns_extend;" xmlns:i="&ns_ai;" xmlns:graph="&ns_graphs;" i:viewOrigin="-64.333 283.167" i:rulerOrigin="64.333 -248.167" i:pageBounds="-64.333 283.167 17.667 248.167"
	 xmlns="http://www.w3.org/2000/svg" xmlns:xlink="http://www.w3.org/1999/xlink" xmlns:a="http://ns.adobe.com/AdobeSVGViewerExtensions/3.0/"
	 x="0px" y="0px" width="82px" height="35px" viewBox="0 0 82 35" enable-background="new 0 0 82 35" xml:space="preserve">
<metadata>
	<variableSets  xmlns="&ns_vars;">
		<variableSet  varSetName="binding1" locked="none">
			<variables></variables>
			<v:sampleDataSets  xmlns="&ns_custom;" xmlns:v="&ns_vars;"></v:sampleDataSets>
		</variableSet>
	</variableSets>
	<sfw  xmlns="&ns_sfw;">
		<slices></slices>
		<sliceSourceBounds  y="-6738.5" x="-11716.044" width="23712.086" height="15032" bottomLeftOrigin="true"></sliceSourceBounds>
		<optimizationSettings>
			<targetSettings  fileFormat="PNG8Format" targetSettingsID="0">
				
					<PNG8Format  reductionAlgorithm="adaptive" ditherPercent="100" autoReduce="false" numColors="256" transparency="true" matteColor="#FFFFFF" noMatteColor="false" interlaced="false" rolloverMasterPalette="false" webShiftPercent="0" ditherAlgorithm="diffusion">
					<colorTable  isExact="false"></colorTable>
					<lockedColors></lockedColors>
					<colorShiftEntries></colorShiftEntries>
				</PNG8Format>
			</targetSettings>
		</optimizationSettings>
	</sfw>
</metadata>
<g id="Calque_2" i:layer="yes" i:dimmedPercent="50" i:rgbTrio="#FFFF4F004F00">
	<g>
		<g>
			<path i:knockout="Off" fill="#333333" d="M25.562,16.82c-2.043,0-3.447-1.709-3.447-3.691c0-2.869,0.916-5.613,1.557-8.358
				c0.123-0.458,0.275-0.916,0.275-1.404c0-0.275-0.092-0.67-0.459-0.67c-0.428,0-0.853,0.245-1.218,0.489
				c-2.96,2.012-4.545,6.008-6.041,9.149c-0.489,1.038-1.219,2.9-2.592,2.9c-1.251,0-1.464-1.25-1.464-2.228
				c0-1.22,0.305-2.379,0.489-3.539c0.272-1.556,0.547-3.141,0.547-4.727c0-0.093-0.029-0.214-0.061-0.305
				c-2.409,0.03-7.259,9.884-8.908,11.927c-0.212,0.273-0.518,0.519-0.883,0.519c-0.579,0-0.825-0.519-0.825-1.038
				c0-1.25,0.945-3.844,1.282-5.156c0.458-1.828,0.946-3.812,0.946-5.703c0-1.037-0.335-2.777-1.677-2.777
				c-1.007,0-1.464,1.098-2.166,1.098c-0.366,0-0.61-0.334-0.61-0.67c0-1.251,1.831-2.167,2.928-2.167
				c2.41,0,3.143,2.317,3.143,4.331c0,2.686-0.855,5.278-1.556,7.841c1.342-2.259,5.702-9.976,8.45-9.976
				c1.434,0,1.646,1.556,1.646,2.684c0,2.594-1.097,5.065-1.097,7.627c0,0.152,0.029,0.274,0.029,0.427
				c0.123-0.153,0.184-0.275,0.276-0.427C15.71,9.742,19.43,0.927,23.641,0.927c1.403,0,2.013,0.792,2.013,2.134
				c0,1.496-0.61,2.93-1.007,4.332c-0.426,1.618-0.792,3.294-0.792,4.974c0,1.279,0.639,3.049,2.196,3.049
				c0.397,0,0.763,0.183,0.763,0.643C26.813,16.667,26.021,16.82,25.562,16.82"/>
			<g>
				<path i:knockout="Off" fill="#333333" d="M28.637,9.572c-1.065,0-1.676,1.617-1.768,2.439c0.123,0.03,0.245,0.063,0.368,0.063
					c0.823,0,1.83-0.917,1.83-1.74C29.066,10.12,28.913,9.572,28.637,9.572 M33.549,13.17c-0.854,1.74-2.989,3.6-5.003,3.6
					c-2.104,0-3.325-1.83-3.325-3.782c0-2.014,1.374-4.851,3.659-4.851c1.07,0,1.68,0.793,1.68,1.83
					c0,1.832-1.832,3.632-3.631,3.692c0.215,0.917,0.855,1.495,1.799,1.495c1.709,0,2.808-1.433,3.722-2.653
					c0.184-0.245,0.245-0.337,0.549-0.337c0.368,0,0.642,0.306,0.642,0.672C33.641,12.956,33.611,13.078,33.549,13.17"/>
				<path i:knockout="Off" fill="#333333" d="M39.346,3.181c-0.945,1.525-1.312,4.698-1.312,6.467c0,0.242,0.031,0.457,0.031,0.67
					c0.732-1.707,1.401-3.935,1.401-5.795C39.467,4.065,39.438,3.608,39.346,3.181 M34.252,15.384c0.885,0,2.074-1.74,2.531-2.441
					c-0.274-1.13-0.303-2.197-0.303-3.356V9.464c-0.184-0.122-0.305-0.243-0.521-0.243c-1.189,0-2.501,3.539-2.501,4.728
					C33.458,14.469,33.58,15.384,34.252,15.384 M43.798,12.576c-0.486,1.586-1.739,3.874-3.69,3.874
					c-1.158,0-2.167-0.854-2.745-1.799c-0.762,1.037-2.104,2.317-3.508,2.317c-1.494,0-1.983-1.432-1.983-2.684
					c0-2.167,1.617-6.589,4.272-6.619c0.152,0,0.271,0,0.424,0.03c0.155-1.495,0.917-6.282,2.898-6.282
					c1.313,0,1.497,1.981,1.497,2.928c0,2.715-1.281,6.009-2.44,8.419c0.212,0.732,0.762,2.074,1.676,2.074
					c1.739,0,1.953-3.204,2.989-3.204c0.396,0,0.642,0.335,0.642,0.702C43.831,12.424,43.831,12.515,43.798,12.576"/>
				<path i:knockout="Off" fill="#333333" d="M44.167,7.939c-0.55,0-1.008-0.334-1.008-0.915c0-0.884,0.518-2.165,1.587-2.165
					c0.702,0,1.037,0.672,1.037,1.281C45.783,7.024,45.111,7.939,44.167,7.939 M46.179,16.176c-0.548,0.397-1.221,0.64-1.89,0.64
					c-1.65,0-2.044-1.465-2.044-2.837c0-0.978,0.092-4.667,1.464-4.667c0.458,0,0.733,0.366,0.733,0.792
					c0,0.886-0.581,2.471-0.581,3.782c0,0.549,0,1.374,0.762,1.374c1.22,0,2.562-2.349,3.051-3.233
					c0.152-0.214,0.396-0.427,0.671-0.427c0.367,0,0.64,0.275,0.64,0.639C48.986,13.43,47.093,15.473,46.179,16.176"/>
				<path i:knockout="Off" fill="#333333" d="M51.975,9.479c-1.556,0-3.478,3.112-3.478,4.516c0,0.732,0.459,1.28,1.22,1.28
					c1.404,0,2.534-1.982,2.534-3.234c0-0.334-0.092-0.67-0.092-1.005c0-0.49,0.092-1.007,0.365-1.404
					C52.372,9.54,52.189,9.479,51.975,9.479 M59.204,11.707c-0.213,1.954-1.952,4.333-4.117,4.333c-0.977,0-1.739-0.58-2.226-1.405
					c-0.702,1.13-1.892,2.228-3.294,2.228c-1.527,0-2.686-1.221-2.686-2.715c0-2.38,2.835-6.315,5.398-6.315
					c0.733,0,1.739,0.427,1.739,1.282c0,0.182-0.06,0.335-0.151,0.488c0.151,0.151,0.214,0.366,0.214,0.579
					c0,0.58-0.183,1.129-0.183,1.708c0,0.854,0.212,2.623,1.341,2.623c2.044,0,2.196-3.661,3.355-3.661
					c0.396,0,0.609,0.338,0.609,0.672V11.707z"/>
			</g>
		</g>
		<g>
			<path i:knockout="Off" fill="#333333" d="M9.853,28.648C9.74,28.591,9.6,28.563,9.461,28.563c-0.14,0-0.278,0.028-0.42,0.085
				c0,0.361,0.531,0.725,0.812,0.835V28.648z M11.468,27.615c0.838,0.447,1.537,1.116,2.26,1.73
				c3.037-0.809,9.649-3.403,9.649-7.391c0-3.346-5.634-4.015-8.115-4.015c-3.264,0-7.53,0.837-10.124,2.956
				c-0.391,0.307-1.171,0.948-1.171,1.533c0,1.618,4.434,0.949,4.434,2.146c0,0.448-0.476,0.615-0.837,0.615
				c-1.645,0-5.242-0.447-5.242-2.704c0-1.034,0.81-1.869,1.562-2.482c3.009-2.398,7.78-3.486,11.571-3.486
				c3.263,0,9.51,1.003,9.51,5.298c0,4.49-6.33,7.364-9.843,8.562c2.09,1.422,4.795,2.593,7.39,2.593
				c0.918,0,1.699-0.307,2.202-0.307c0.335,0,0.641,0.14,0.641,0.531c0,0.948-2.842,1.141-3.512,1.141
				c-3.235,0-6.332-1.7-8.896-3.512c-0.475,0.111-0.977,0.139-1.45,0.139c0.026,0.894,0.195,1.812,0.195,2.677
				c0,0.475-0.335,0.836-0.81,0.836c-0.501,0-0.781-0.361-0.865-0.836c-0.165-0.865-0.11-1.896-0.11-2.788
				c-1.059-0.14-2.205-0.781-2.205-1.98c0-1.117,1.172-1.871,2.205-1.757c0.055-1.172,0.614-7.781,1.951-7.781
				c0.39,0,0.642,0.334,0.642,0.697c0,0.138-0.029,0.25-0.084,0.39c-0.613,2.091-0.976,4.519-0.949,6.721V27.615z"/>
			<g>
				<path i:knockout="Off" fill="#333333" d="M26.183,27.087c-1.068,0-1.677,1.617-1.771,2.44c0.124,0.031,0.246,0.062,0.368,0.062
					c0.822,0,1.831-0.916,1.831-1.74C26.61,27.636,26.458,27.087,26.183,27.087 M31.093,30.687c-0.853,1.738-2.99,3.6-5.002,3.6
					c-2.105,0-3.326-1.831-3.326-3.783c0-2.014,1.374-4.851,3.662-4.851c1.067,0,1.676,0.793,1.676,1.83
					c0,1.829-1.831,3.63-3.629,3.692c0.213,0.914,0.854,1.494,1.798,1.494c1.709,0,2.807-1.435,3.724-2.655
					c0.181-0.244,0.244-0.335,0.548-0.335c0.366,0,0.642,0.306,0.642,0.672C31.186,30.473,31.154,30.596,31.093,30.687"/>
				<path i:knockout="Off" fill="#333333" d="M45.309,29.904c-0.64,1.464-2.532,2.501-4.088,2.501c-0.428,0-0.853-0.062-1.25-0.183
					c-0.703,1.097-1.738,2.043-3.111,2.043c-1.159,0-2.167-0.764-2.625-1.83c-0.761,0.824-1.799,1.739-2.989,1.739
					c-1.282,0-2.043-0.762-2.043-2.044c0-1.25,0.914-5.705,2.531-5.705c0.458,0,0.946,0.367,0.946,0.854
					c0,0.305-1.738,3.081-1.738,4.576c0,0.245,0.089,0.823,0.396,0.823c0.854,0,2.533-1.922,2.624-2.746
					c0.091-0.945,0.182-3.264,1.556-3.264c0.58,0,0.762,0.55,0.762,1.037c0,1.037-0.639,1.891-0.639,2.898
					c0,0.793,0.457,2.074,1.431,2.074c0.703,0,1.372-0.762,1.71-1.311c-0.306-0.427-0.397-0.977-0.397-1.496
					c0-0.794,0.487-2.869,1.525-2.869c0.794,0,0.916,1.1,0.916,1.679c0,0.702-0.122,1.374-0.244,2.045
					c0.244,0.122,0.549,0.152,0.822,0.152c2.167,0,2.501-1.983,3.326-1.983c0.365,0,0.67,0.335,0.67,0.67
					C45.399,29.69,45.368,29.782,45.309,29.904"/>
				<path i:knockout="Off" fill="#333333" d="M48.36,26.996c-1.556,0-3.477,3.113-3.477,4.515c0,0.733,0.458,1.282,1.22,1.282
					c1.404,0,2.532-1.983,2.532-3.234c0-0.334-0.092-0.67-0.092-1.006c0-0.488,0.092-1.006,0.366-1.402
					C48.755,27.057,48.574,26.996,48.36,26.996 M55.59,29.224c-0.214,1.952-1.952,4.331-4.119,4.331
					c-0.976,0-1.738-0.579-2.227-1.404c-0.701,1.13-1.891,2.229-3.295,2.229c-1.524,0-2.685-1.221-2.685-2.714
					c0-2.381,2.838-6.316,5.401-6.316c0.73,0,1.739,0.427,1.739,1.282c0,0.182-0.06,0.335-0.155,0.489
					c0.155,0.151,0.215,0.365,0.215,0.579c0,0.579-0.183,1.128-0.183,1.708c0,0.855,0.213,2.623,1.339,2.623
					c2.046,0,2.198-3.66,3.357-3.66c0.396,0,0.61,0.335,0.61,0.671V29.224z"/>
				<path i:knockout="Off" fill="#333333" d="M63.767,30.122c-0.58,1.861-2.319,4.18-4.454,4.18c-1.679,0-2.136-1.403-2.136-2.836
					c0-0.549,0.031-1.128,0.123-1.678c-0.58,0.334-1.129,0.58-1.8,0.487c-0.122,0.214-0.334,0.367-0.579,0.367
					c-0.336,0-0.703-0.244-0.703-0.608c0-0.184,0.093-0.429,0.185-0.612c-0.092-0.184-0.123-0.366-0.123-0.579
					c0-0.883,0.793-3.629,1.891-3.629c0.426,0,0.733,0.457,0.733,0.853c0,0.916-0.52,1.799-0.885,2.623
					c0.091,0,0.152,0.031,0.213,0.031c1.892,0,1.465-2.41,2.776-2.41c0.457,0,0.731,0.427,0.731,0.854
					c0,0.427-0.214,0.672-0.488,0.977c-0.272,0.335-0.549,2.318-0.549,2.836c0,0.701,0.182,1.648,1.068,1.648
					c2.012,0,2.348-3.326,3.417-3.326c0.335,0,0.64,0.275,0.64,0.611C63.826,29.969,63.797,30.062,63.767,30.122"/>
				<path i:knockout="Off" fill="#333333" d="M69.53,20.698c-0.943,1.525-1.311,4.697-1.311,6.466c0,0.244,0.032,0.457,0.032,0.672
					c0.73-1.708,1.401-3.936,1.401-5.795C69.653,21.583,69.625,21.124,69.53,20.698 M64.438,32.898c0.885,0,2.075-1.738,2.533-2.44
					c-0.276-1.129-0.306-2.197-0.306-3.356v-0.122c-0.183-0.123-0.305-0.245-0.52-0.245c-1.187,0-2.499,3.54-2.499,4.729
					C63.646,31.984,63.768,32.898,64.438,32.898 M73.985,30.092c-0.487,1.586-1.739,3.875-3.69,3.875
					c-1.159,0-2.166-0.854-2.745-1.8c-0.764,1.037-2.105,2.319-3.51,2.319c-1.495,0-1.982-1.433-1.982-2.684
					c0-2.166,1.617-6.588,4.271-6.62c0.153,0,0.275,0,0.427,0.031c0.152-1.496,0.915-6.286,2.897-6.286
					c1.312,0,1.496,1.984,1.496,2.93c0,2.716-1.28,6.009-2.441,8.419c0.215,0.732,0.764,2.074,1.679,2.074
					c1.738,0,1.952-3.202,2.989-3.202c0.397,0,0.641,0.334,0.641,0.701C74.016,29.939,74.016,30.032,73.985,30.092"/>
				<path i:knockout="Off" fill="#333333" d="M78.167,32.67c-0.519,0.977-1.771,1.709-2.87,1.709c-0.884,0-2.531-0.488-2.531-1.586
					c0-0.366,0.276-0.703,0.641-0.703c0.367,0,0.855,0.489,1.677,0.489c0.611,0,1.283-0.213,1.769-0.58
					c0.091-0.182,0.121-0.426,0.121-0.641c0-1.067-1.615-2.317-2.377-2.958c-0.245,0.457-0.732,1.646-1.311,1.646
					c-0.367,0-0.58-0.212-0.58-0.579c0-0.762,0.549-1.556,0.824-2.228c-0.154-0.335-0.215-0.701-0.215-1.067
					c0-0.854,0.704-2.713,1.739-2.713c0.611,0,0.763,0.457,0.763,0.975c0,0.793-0.305,1.648-0.549,2.378
					c1.1,1.037,2.837,2.349,3.142,3.937c0.611-0.611,1.068-1.282,1.496-2.015c0.122-0.213,0.304-0.366,0.549-0.366
					c0.366,0,0.579,0.274,0.579,0.61C81.033,30.077,79.049,32.121,78.167,32.67"/>
			</g>
		</g>
	</g>
</g>
</svg>
